<?xml version="1.0" encoding="UTF-8" standalone="no"?>
<svg
   xmlns:dc="http://purl.org/dc/elements/1.1/"
   xmlns:cc="http://creativecommons.org/ns#"
   xmlns:rdf="http://www.w3.org/1999/02/22-rdf-syntax-ns#"
   xmlns:svg="http://www.w3.org/2000/svg"
   xmlns="http://www.w3.org/2000/svg"
   xmlns:sodipodi="http://sodipodi.sourceforge.net/DTD/sodipodi-0.dtd"
   xmlns:inkscape="http://www.inkscape.org/namespaces/inkscape"
   width="300"
   height="160"
   viewBox="0 0 2122 1125"
   version="1.0"
   id="svg2"
   sodipodi:version="0.32"
   inkscape:version="0.46"
   sodipodi:docname="IETF Logo.svg"
   inkscape:output_extension="org.inkscape.output.svg.inkscape">
  <metadata
     id="metadata55">
    <rdf:RDF>
      <cc:Work
         rdf:about="">
        <dc:format>image/svg+xml</dc:format>
        <dc:type
           rdf:resource="http://purl.org/dc/dcmitype/StillImage" />
      </cc:Work>
    </rdf:RDF>
  </metadata>
  <defs
     id="defs53">
    <inkscape:perspective
       sodipodi:type="inkscape:persp3d"
       inkscape:vp_x="0 : 703.125 : 1"
       inkscape:vp_y="0 : 1000 : 0"
       inkscape:vp_z="2652.5 : 703.125 : 1"
       inkscape:persp3d-origin="1326.25 : 468.75 : 1"
       id="perspective57" />
  </defs>
  <sodipodi:namedview
     inkscape:window-height="669"
     inkscape:window-width="640"
     inkscape:pageshadow="2"
     inkscape:pageopacity="0.0"
     guidetolerance="10.0"
     gridtolerance="10.0"
     objecttolerance="10.0"
     borderopacity="1.0"
     bordercolor="#666666"
     pagecolor="#ffffff"
     id="base"
     showgrid="false"
     inkscape:zoom="0.20508954"
     inkscape:cx="1326.25"
     inkscape:cy="703.125"
     inkscape:window-x="138"
     inkscape:window-y="95"
     inkscape:current-layer="svg2" />
  <g
     id="#ffffffff" />
  <g
     id="#bbbcc1ff">
    <path
       d="M 690.12,0 L 690.64,0 C 738.63,47.98 786.74,95.85 834.54,144.02 C 813.08,166.07 791.04,187.58 769.36,209.43 C 743.22,235.59 717.07,261.73 690.92,287.86 C 690.26,287.13 689.45,286.7 688.5,286.56 C 682.98,281.73 678.07,276.23 672.79,271.15 C 630.8,229.13 588.77,187.15 546.78,145.13 C 545.59,144.26 546.56,143.11 547.31,142.39 C 584.75,105.14 622.02,67.7 659.38,30.38 C 669.97,20.62 679.92,10.16 690.12,0 z"
       id="path6"
       style="opacity:1;fill:#bbbcc1" />
    <path
       d="M 1029.46,0 L 1029.88,0 C 1064.11,33.45 1097.7,67.58 1131.62,101.36 C 1145.08,115.04 1159.05,128.25 1172.16,142.26 C 1124.15,190.31 1076.08,238.3 1028.09,286.38 C 1026.21,284.76 1024.37,283.09 1022.65,281.3 C 977.49,236.5 932.7,191.31 887.59,146.44 C 886.94,145.59 885.22,144.53 886.26,143.33 C 933.93,95.51 981.85,47.89 1029.46,0 z"
       id="path8"
       style="opacity:1;fill:#bbbcc1" />
    <path
       d="M 1369.18,0 L 1369.7,0 C 1410.36,40.75 1451.14,81.38 1491.83,122.1 C 1498.62,129.14 1505.99,135.66 1512.35,143.1 C 1465.05,190.45 1417.59,237.65 1370.44,285.15 C 1358.82,274.28 1347.86,262.68 1336.5,251.53 C 1300.22,215.24 1263.92,178.98 1227.66,142.66 C 1228.55,139.82 1231.14,138.13 1233.1,136.05 C 1278.46,90.69 1323.81,45.33 1369.18,0 z"
       id="path10"
       style="opacity:1;fill:#bbbcc1" />
    <path
       d="M 178.61,169.57 C 179.56,168.17 180.9,169.61 181.68,170.34 C 212.36,201.3 243.41,231.9 274.21,262.73 C 284.11,272.89 294.52,282.56 304.13,292.98 C 225.75,293.01 147.37,293 68.99,292.99 C 68.97,289.35 69.16,285.7 68.81,282.07 C 68.31,282.03 67.3,281.94 66.8,281.89 C 68.51,279.6 70.48,277.52 72.56,275.57 C 107.93,240.25 143.23,204.86 178.61,169.57 z"
       id="path12"
       style="opacity:1;fill:#bbbcc1" />
    <path
       d="M 517.75,169.75 C 518.61,168.5 520.19,169.06 520.95,170.08 C 568.29,217.48 615.71,264.79 663.02,312.2 C 615.49,359.72 568.02,407.29 520.42,454.74 C 472.42,406.59 424.34,358.52 376.21,310.51 C 376.72,310.21 377.73,309.61 378.24,309.31 C 424.71,262.76 471.29,216.3 517.75,169.75 z"
       id="path14"
       style="opacity:1;fill:#bbbcc1" />
    <path
       d="M 854.1,173.18 C 855.67,171.78 856.87,169.71 858.91,168.98 C 860.88,169.94 862.19,171.84 863.78,173.32 C 891.28,200.78 918.75,228.28 946.24,255.76 C 964.87,274.6 983.92,293.04 1002.29,312.13 C 954.48,359.9 906.76,407.78 858.86,455.48 C 833.55,430.34 808.4,405.04 783.15,379.84 C 760.84,357.29 738,335.3 715.73,312.73 C 716.17,311.58 716.56,310.37 717.54,309.55 C 763.12,264.16 808.45,218.51 854.1,173.18 z"
       id="path16"
       style="opacity:1;fill:#bbbcc1" />
    <path
       d="M 1763.05,285.09 C 1802.03,246.27 1840.73,207.13 1879.87,168.48 C 1912.52,201.04 1945.1,233.66 1977.71,266.26 C 1982.8,271.65 1988.48,276.49 1993.24,282.19 C 1990.48,282.21 1987.75,282.22 1985.03,282.2 C 1984.94,286.39 1985.1,290.59 1984.87,294.78 C 1907.86,294.55 1830.84,294.8 1753.83,294.66 C 1756.66,291.25 1759.94,288.25 1763.05,285.09 z"
       id="path18"
       style="opacity:1;fill:#bbbcc1" />
    <path
       d="M 1197.85,173.63 C 1198.69,172.15 1199.89,173.63 1200.63,174.31 C 1247.32,221.1 1294.12,267.8 1340.84,314.57 C 1293.69,362.26 1245.95,409.39 1198.7,456.99 C 1194.05,453.49 1190.4,448.85 1186.12,444.92 C 1149.61,408.42 1113.11,371.91 1076.62,335.39 C 1069.99,328.54 1062.79,322.19 1056.63,314.91 C 1103.69,267.8 1150.83,220.78 1197.85,173.63 z"
       id="path20"
       style="opacity:1;fill:#bbbcc1" />
    <path
       d="M 1495.89,214.83 C 1509.96,200.88 1523.8,186.69 1538,172.88 C 1542.39,176.43 1546.07,180.87 1550.21,184.75 C 1593.58,228.1 1636.9,271.48 1680.29,314.8 C 1634.8,360.51 1589.09,405.99 1543.56,451.65 C 1541.65,453.62 1539.78,455.66 1537.4,457.05 C 1529.64,448.69 1521.36,440.82 1513.33,432.73 C 1474.17,393.38 1434.72,354.31 1395.67,314.86 C 1429.07,281.52 1462.37,248.06 1495.89,214.83 z"
       id="path22"
       style="opacity:1;fill:#bbbcc1" />
    <path
       d="M 69,331.9 C 147.42,331.93 225.83,331.88 304.25,331.93 C 303.22,333.31 302.15,334.67 300.93,335.89 C 269.74,367.04 238.58,398.23 207.4,429.4 C 198.02,438.58 189.02,448.19 179.39,457.1 C 145.4,422.89 111.19,388.9 77.15,354.74 C 74.37,351.89 71.3,349.28 68.93,346.05 C 69.08,341.34 68.97,336.62 69,331.9 z"
       id="path24"
       style="opacity:1;fill:#bbbcc1" />
    <path
       d="M 1757.8,334.63 C 1833.53,334.6 1909.27,334.6 1985,334.63 C 1984.99,338.41 1984.99,342.19 1985,345.97 C 1986.69,346 1988.39,346.04 1990.13,346.05 C 1987.96,349.21 1985.03,351.7 1982.37,354.42 C 1960.04,376.73 1937.73,399.07 1915.4,421.4 C 1903.34,433.22 1891.73,445.54 1879.39,457.06 C 1843.35,420.95 1807.27,384.89 1771.18,348.83 C 1766.78,344.04 1761.53,340 1757.8,334.63 z"
       id="path26"
       style="opacity:1;fill:#bbbcc1" />
    <path
       d="M 1368.58,342.08 C 1369.19,341.39 1369.82,340.71 1370.48,340.04 C 1389.8,359.55 1409.52,378.65 1428.86,398.14 C 1457.11,426.46 1485.51,454.64 1513.66,483.06 C 1507.45,490.67 1499.65,496.79 1492.88,503.89 C 1463.74,533.09 1434.54,562.23 1405.4,591.44 C 1393.21,603.33 1381.52,615.75 1369.09,627.39 C 1333.27,591.73 1297.6,555.91 1261.83,520.19 C 1249.48,508.06 1237.56,495.49 1224.95,483.65 C 1231.48,476 1239.13,469.36 1246.06,462.07 C 1286.51,421.74 1326.77,381.22 1367.29,340.97 C 1367.61,341.24 1368.25,341.8 1368.58,342.08 z"
       id="path28"
       style="opacity:1;fill:#bbbcc1" />
    <path
       d="M 886.89,484.63 C 934.92,436.64 982.91,388.61 1030.93,340.61 C 1037.88,346.44 1043.9,353.31 1050.44,359.6 C 1091.65,400.79 1132.85,442 1174.05,483.2 C 1126.1,531.38 1077.93,579.36 1029.9,627.47 C 1016.73,614.87 1004.09,601.72 991.12,588.92 C 956.4,554.13 921.56,519.47 886.89,484.63 z"
       id="path30"
       style="opacity:1;fill:#bbbcc1" />
    <path
       d="M 547.63,484.66 C 595.15,437.15 642.63,389.62 690.18,342.14 C 737.77,389.7 785.34,437.3 832.92,484.87 C 793.1,524.72 753.25,564.54 713.42,604.39 C 705.56,611.94 698.24,620.06 690.15,627.35 C 651.38,588.97 612.98,550.21 574.33,511.7 C 565.48,502.63 556.18,494 547.63,484.66 z"
       id="path32"
       style="opacity:1;fill:#bbbcc1" />
  </g>
  <g
     id="#221e1fff">
    <path
       d="M 1199.49,114.79 C 1209.14,123.8 1218.21,133.43 1227.66,142.66 C 1263.92,178.98 1300.22,215.24 1336.5,251.53 C 1347.86,262.68 1358.82,274.28 1370.44,285.15 C 1417.59,237.65 1465.05,190.45 1512.35,143.1 C 1521.24,134.32 1529.93,125.34 1538.93,116.67 C 1598.39,176.04 1657.69,235.57 1717.35,294.73 C 1729.51,294.64 1741.67,294.78 1753.83,294.66 C 1830.84,294.8 1907.86,294.55 1984.87,294.78 C 1985.1,290.59 1984.94,286.39 1985.03,282.2 C 1987.75,282.22 1990.48,282.21 1993.24,282.19 C 2013.49,282.2 2033.74,282.25 2054,282.17 C 2054,303.45 2054,324.72 2054,346 C 2032.71,346.03 2011.42,345.93 1990.13,346.05 C 1988.39,346.04 1986.69,346 1985,345.97 C 1984.99,342.19 1984.99,338.41 1985,334.63 C 1909.27,334.6 1833.53,334.6 1757.8,334.63 C 1738.57,334.47 1719.34,334.59 1700.11,334.57 C 1693.47,328.01 1686.92,321.36 1680.29,314.8 C 1636.9,271.48 1593.58,228.1 1550.21,184.75 C 1546.07,180.87 1542.39,176.43 1538,172.88 C 1523.8,186.69 1509.96,200.88 1495.89,214.83 C 1462.37,248.06 1429.07,281.52 1395.67,314.86 C 1387.24,323.22 1378.85,331.63 1370.48,340.04 C 1369.82,340.71 1369.19,341.39 1368.58,342.08 C 1368.25,341.8 1367.61,341.24 1367.29,340.97 C 1358.45,332.19 1349.69,323.33 1340.84,314.57 C 1294.12,267.8 1247.32,221.1 1200.63,174.31 C 1199.89,173.63 1198.69,172.15 1197.85,173.63 C 1150.83,220.78 1103.69,267.8 1056.63,314.91 C 1048.02,323.44 1039.46,332.01 1030.93,340.61 C 982.91,388.61 934.92,436.64 886.89,484.63 C 877.8,493.6 868.87,502.73 859.75,511.67 C 850.79,502.75 841.85,493.81 832.92,484.87 C 785.34,437.3 737.77,389.7 690.18,342.14 C 642.63,389.62 595.15,437.15 547.63,484.66 C 538.79,493.29 530.25,502.23 521.32,510.76 C 461.73,451.2 402.06,391.71 342.64,331.99 C 329.84,331.75 317.04,331.87 304.25,331.93 C 225.83,331.88 147.42,331.93 69,331.9 C 68.97,336.62 69.08,341.34 68.93,346.05 C 45.95,345.93 22.98,346.03 0,346 L 0,282.22 C 19.67,282.22 39.35,282.2 59.02,282.21 C 61.62,282.22 64.23,282.35 66.8,281.89 C 67.3,281.94 68.31,282.03 68.81,282.07 C 69.16,285.7 68.97,289.35 68.99,292.99 C 147.37,293 225.75,293.01 304.13,292.98 C 322.35,293.02 340.57,292.99 358.79,293 C 364.55,298.88 370.46,304.61 376.21,310.51 C 424.34,358.52 472.42,406.59 520.42,454.74 C 568.02,407.29 615.49,359.72 663.02,312.2 C 671.51,303.65 680.19,295.28 688.5,286.56 C 689.45,286.7 690.26,287.13 690.92,287.86 C 699.11,296.24 707.44,304.46 715.73,312.73 C 738,335.3 760.84,357.29 783.15,379.84 C 808.4,405.04 833.55,430.34 858.86,455.48 C 906.76,407.78 954.48,359.9 1002.29,312.13 C 1010.92,303.57 1019.48,294.95 1028.09,286.38 C 1076.08,238.3 1124.15,190.31 1172.16,142.26 C 1181.29,133.12 1190.55,124.11 1199.49,114.79 M 1199.46,124.03 C 1187.01,137.03 1174,149.49 1161.4,162.35 C 1060.48,263.1 959.82,364.12 858.8,464.77 C 802.35,408.23 745.76,351.84 689.37,295.24 C 633.03,351.38 576.83,407.66 520.63,463.95 C 503.14,446.91 486.07,429.45 468.74,412.25 C 438.58,382.09 408.42,351.92 378.25,321.76 C 370.64,314.33 363.37,306.49 355.54,299.34 C 260.07,299.18 164.58,299.39 69.1,299.23 C 68.86,307.92 69.07,316.63 69,325.33 C 159.32,325.5 249.64,325.35 339.97,325.4 C 341.86,325.65 344.25,324.71 345.83,326.08 C 404.37,384.61 462.89,443.16 521.44,501.67 C 577.39,445.57 633.46,389.59 689.5,333.58 C 689.76,333.51 690.28,333.36 690.54,333.29 C 723.76,366.45 756.92,399.68 790.12,432.86 C 813.17,456.06 836.55,478.95 859.37,502.36 C 861.47,501.22 862.88,499.21 864.63,497.62 C 976.07,386.24 1087.39,274.74 1198.9,163.43 C 1255.54,219.83 1311.9,276.52 1368.55,332.91 C 1383.93,316.86 1400.09,301.56 1415.71,285.74 C 1456.29,245.2 1496.8,204.6 1537.4,164.09 C 1539.72,163.31 1541.03,167.02 1542.89,168.14 C 1596.24,221.44 1649.51,274.84 1702.91,328.1 C 1796.93,328.05 1890.96,328.11 1984.99,328.07 C 1984.99,319.04 1984.99,310.02 1985,301 C 1894.73,301 1804.45,301 1714.18,301 C 1660.54,246.91 1606.36,193.37 1552.53,139.48 C 1547.8,135.03 1543.56,129.99 1538.54,125.89 C 1536.6,128.47 1534.08,130.52 1531.86,132.83 C 1478.16,186.67 1424.23,240.28 1370.64,294.22 C 1368.8,293.59 1367.71,291.9 1366.35,290.64 C 1322.85,247.13 1279.34,203.63 1235.84,160.13 C 1223.67,148.15 1211.86,135.76 1199.46,124.03 z"
       id="path35"
       style="opacity:1;fill:#221e1f" />
    <path
       d="M 2046.37,907.51 C 2051.25,894.16 2063.99,884.12 2078.11,882.51 C 2089.15,881 2100.7,884.64 2109.02,892.02 C 2116.32,898.44 2120.91,907.66 2122,917.31 L 2122,925.75 C 2120.18,941.08 2108.78,954.86 2093.77,958.85 C 2078.45,963.36 2060.76,957.45 2051.47,944.42 C 2043.64,934.03 2041.82,919.63 2046.37,907.51 M 2076.55,890.7 C 2063.51,893.23 2053.09,904.94 2051.85,918.13 C 2050.17,932.04 2059.25,946.19 2072.47,950.68 C 2084.76,955.34 2099.69,950.99 2107.64,940.54 C 2115.23,931.27 2116.41,917.52 2110.83,906.97 C 2104.71,894.74 2089.93,887.58 2076.55,890.7 z"
       id="path37"
       style="opacity:1;fill:#221e1f" />
    <path
       d="M 60.2,884.74 C 88.4,884.71 116.61,884.66 144.81,884.77 C 144.72,964.85 144.78,1044.92 144.78,1125 L 60.21,1125 C 60.24,1044.91 60.26,964.83 60.2,884.74 z"
       id="path39"
       style="opacity:1;fill:#221e1f" />
    <path
       d="M 582.75,884.72 C 642.83,884.71 702.92,884.72 763,884.71 C 762.94,901.73 763.11,918.76 762.92,935.78 C 731.02,935.71 699.12,935.76 667.22,935.75 C 667.24,949.76 667.28,963.77 667.22,977.77 C 696.48,977.66 725.74,977.7 755,977.75 C 755,994.66 755,1011.57 755,1028.48 C 725.76,1028.48 696.51,1028.49 667.27,1028.48 C 667.18,1043.7 667.33,1058.92 667.21,1074.14 C 699.67,1074.33 732.13,1074.08 764.58,1074.26 C 764.42,1091.17 764.52,1108.09 764.52,1125 L 582.79,1125 C 582.71,1044.9 582.79,964.81 582.75,884.72 z"
       id="path41"
       style="opacity:1;fill:#221e1f" />
    <path
       d="M 1177.72,884.74 C 1255.98,884.69 1334.24,884.72 1412.5,884.72 C 1412.47,904.89 1412.53,925.06 1412.47,945.23 C 1387.39,945.22 1362.32,945.25 1337.24,945.21 C 1337.24,1005.14 1337.25,1065.07 1337.23,1125 L 1253,1125 C 1252.96,1065.07 1253.08,1005.14 1252.94,945.21 C 1227.88,945.25 1202.83,945.23 1177.77,945.23 C 1177.7,925.06 1177.81,904.9 1177.72,884.74 z"
       id="path43"
       style="opacity:1;fill:#221e1f" />
    <path
       d="M 1833.75,884.72 C 1892.33,884.72 1950.92,884.69 2009.51,884.73 C 2009.41,901.76 2009.64,918.79 2009.39,935.82 C 1978.99,935.7 1948.59,935.7 1918.19,935.83 C 1918.28,950.2 1918.26,964.57 1918.21,978.95 C 1946.8,979.06 1975.4,978.97 2004,979 C 2003.99,995.99 2004,1012.99 2004,1029.99 C 1975.4,1030.04 1946.8,1029.93 1918.2,1030.05 C 1918.32,1061.7 1918.19,1093.35 1918.28,1125 L 1833.75,1125 C 1833.74,1044.91 1833.76,964.81 1833.75,884.72 z"
       id="path45"
       style="opacity:1;fill:#221e1f" />
    <path
       d="M 2065.27,900.47 C 2072.53,900.5 2079.8,900.48 2087.07,900.48 C 2090.35,900.47 2093.76,901.62 2096.1,904 C 2099.13,907.1 2099.75,911.95 2098.57,916 C 2097.28,920.45 2092.64,923.67 2088.07,923.53 C 2092.74,925.64 2094.81,930.52 2097.37,934.62 C 2098.81,937.16 2100.5,939.57 2101.67,942.28 C 2098.11,942.2 2094.56,942.23 2091.02,942.23 C 2087.87,937 2086.04,930.69 2081.18,926.7 C 2079.22,924.92 2076.45,925.22 2074.04,925.19 C 2073.95,930.86 2074.01,936.54 2074,942.22 C 2071.05,942.18 2068.1,942.38 2065.19,942.05 C 2065.32,928.19 2065.15,914.33 2065.27,900.47 M 2074.08,907.17 C 2073.93,910.84 2074,914.53 2074,918.22 C 2078.36,917.9 2083.02,919.02 2087.17,917.25 C 2090.7,915.84 2090.99,910.23 2087.68,908.41 C 2083.43,906.35 2078.59,907.58 2074.08,907.17 z"
       id="path47"
       style="opacity:1;fill:#221e1f" />
  </g>
  <g
     id="#fdd34fff">
    <path
       d="M 1199.46,124.03 C 1211.86,135.76 1223.67,148.15 1235.84,160.13 C 1279.34,203.63 1322.85,247.13 1366.35,290.64 C 1367.71,291.9 1368.8,293.59 1370.64,294.22 C 1424.23,240.28 1478.16,186.67 1531.86,132.83 C 1534.08,130.52 1536.6,128.47 1538.54,125.89 C 1543.56,129.99 1547.8,135.03 1552.53,139.48 C 1606.36,193.37 1660.54,246.91 1714.18,301 C 1804.45,301 1894.73,301 1985,301 C 1984.99,310.02 1984.99,319.04 1984.99,328.07 C 1890.96,328.11 1796.93,328.05 1702.91,328.1 C 1649.51,274.84 1596.24,221.44 1542.89,168.14 C 1541.03,167.02 1539.72,163.31 1537.4,164.09 C 1496.8,204.6 1456.29,245.2 1415.71,285.74 C 1400.09,301.56 1383.93,316.86 1368.55,332.91 C 1311.9,276.52 1255.54,219.83 1198.9,163.43 C 1087.39,274.74 976.07,386.24 864.63,497.62 C 862.88,499.21 861.47,501.22 859.37,502.36 C 836.55,478.95 813.17,456.06 790.12,432.86 C 756.92,399.68 723.76,366.45 690.54,333.29 C 690.28,333.36 689.76,333.51 689.5,333.58 C 633.46,389.59 577.39,445.57 521.44,501.67 C 462.89,443.16 404.37,384.61 345.83,326.08 C 344.25,324.71 341.86,325.65 339.97,325.4 C 249.64,325.35 159.32,325.5 69,325.33 C 69.07,316.63 68.86,307.92 69.1,299.23 C 164.58,299.39 260.07,299.18 355.54,299.34 C 363.37,306.49 370.64,314.33 378.25,321.76 C 408.42,351.92 438.58,382.09 468.74,412.25 C 486.07,429.45 503.14,446.91 520.63,463.95 C 576.83,407.66 633.03,351.38 689.37,295.24 C 745.76,351.84 802.35,408.23 858.8,464.77 C 959.82,364.12 1060.48,263.1 1161.4,162.35 C 1174,149.49 1187.01,137.03 1199.46,124.03 z"
       id="path50"
       style="opacity:1;fill:#fdd34f" />
  </g>
</svg>
