<svg xmlns="http://www.w3.org/2000/svg" viewBox="6 9.75 36.25 30">
<!-- from header of https://developer.mozilla.org/ -->
<path d="M42.01 22.02c-.036-.723-.12-1.448-.17-2.166a1.74 1.74 0 00-.395-.98 2.465 2.465 0 00-1.026-.74c-.808-.314-1.622-.664-2.435-.975a21.509 21.509 0 01-3.342-1.472 2.626 2.626 0 01-1.296-1.972 2.954 2.954 0 00-1.47-2.228 4.062 4.062 0 00-2.958-.35c-.734.176-1.5.165-2.23-.033l-1.112-.34-.302-.09-.873-.26c-1.57-.468-2.228-.713-4.773-.278a14.678 14.678 0 00-7.09 3.897l-6.37 6.76h5.72l-3.504 3.71h6.026l-3.503 3.71h4.844l-1.548 4.06c5.93 6.07 12.25 7.295 12.25 7.295 0-1.673.38-8.24.826-9.34a5.25 5.25 0 01.762-1.54 4.211 4.211 0 013.393-1.547c1.303 0 2.597.238 3.815.702.74.31 1.577.264 2.277-.122a38.42 38.42 0 001.498-.94.839.839 0 01.556-.18c.54.06 1.054-.237 1.27-.734.16-.33.35-.64.524-.97.472-.884.69-1.88.633-2.88z"></path>
</svg>
