<?xml version="1.0" encoding="utf-8"?>
<!-- Generator: Adobe Illustrator 23.1.0, SVG Export Plug-In . SVG Version: 6.00 Build 0)  -->
<svg version="1.1" id="Layer_1" xmlns="http://www.w3.org/2000/svg" xmlns:xlink="http://www.w3.org/1999/xlink" x="0px" y="0px"
	 viewBox="0 0 126 144" style="enable-background:new 0 0 126 144;" xml:space="preserve">
<style type="text/css">
	.st0{fill:#5555FF;}
	.st1{fill:#FFFFFF;}
</style>
<path class="st0" d="M119,120H1c-0.55,0-1-0.45-1-1V1c0-0.55,0.45-1,1-1h118c0.55,0,1,0.45,1,1v118C120,119.55,119.55,120,119,120z"
	/>
<g>
	<path class="st1" d="M103,45.84h-9.12c-0.57,0-0.85,0.25-0.85,0.76v16.06c0,2.22,0.01,4.12,0.05,5.7c0.03,1.58,0.06,2.93,0.09,4.04
		c0.03,1.11,0.06,2.06,0.1,2.85c0.03,0.79,0.05,1.51,0.05,2.14h-0.1c-0.57-1.2-1.41-2.88-2.52-5.04c-1.11-2.15-2.39-4.61-3.85-7.37
		c-1.46-2.76-3.03-5.69-4.7-8.79c-1.68-3.1-3.34-6.18-4.99-9.22c-1.65-3.04-3.25-5.95-4.8-8.74c-1.55-2.79-2.9-5.23-4.04-7.32
		c-0.13-0.25-0.25-0.43-0.38-0.52c-0.13-0.09-0.38-0.14-0.76-0.14h-3.33h-9.98h-0.1c-0.44,0-0.66,0.22-0.66,0.67l0.02,0.02
		c-0.01,0.06-0.02,0.1-0.02,0.17v37.16c0,2.92-0.33,5.34-1,7.27c-0.67,1.93-1.59,3.48-2.76,4.66c-1.17,1.17-2.55,2.01-4.13,2.52
		c-1.59,0.51-3.33,0.76-5.23,0.76c-4.56,0-7.95-1.36-10.17-4.09c-2.22-2.72-3.33-6.37-3.33-10.93V31.01c0-0.51-0.25-0.76-0.76-0.76
		h-9.98c-0.51,0-0.76,0.29-0.76,0.86v38.21c0,4.12,0.57,7.7,1.71,10.74c1.14,3.04,2.79,5.56,4.94,7.56c2.15,2,4.75,3.5,7.79,4.51
		c3.04,1.01,6.43,1.52,10.17,1.52c3.48,0,6.76-0.46,9.84-1.38c3.07-0.92,5.72-2.38,7.94-4.37c2.22-2,3.98-4.56,5.28-7.7
		c1.3-3.14,1.95-6.92,1.95-11.36V44.77c0.52,1.11,1.13,2.38,1.85,3.83c1.3,2.6,2.77,5.46,4.42,8.6c1.65,3.14,3.39,6.42,5.23,9.84
		c1.84,3.42,3.63,6.72,5.37,9.88c1.74,3.17,3.33,6.08,4.75,8.74c1.43,2.66,2.55,4.78,3.37,6.37c0.25,0.44,0.67,0.67,1.24,0.67h12.07
		c0.63,0,0.95-0.28,0.95-0.85V46.7C103.86,46.13,103.57,45.84,103,45.84z"/>
	<circle class="st1" cx="98.44" cy="32.91" r="6.56"/>
</g>
<g>
	<path class="st0" d="M108.04,142.04H120v-3.31h-7.61v-4.43h6.83v-3.19h-6.83v-4.32H120v-3.31h-11.96V142.04z M92.46,138.73v-11.94
		h2.88c3.41,0,5.21,2.45,5.21,5.97c0,3.62-1.87,5.97-5.21,5.97H92.46z M88.13,142.04h7.21c5.66,0,9.64-3.87,9.64-9.28
		c0-5.49-4.05-9.28-9.64-9.28h-7.21V142.04z M75.54,138.68c-3.46,0-5.21-2.38-5.23-5.92c-0.03-3.54,1.74-5.89,5.23-5.92
		c3.52-0.03,5.26,2.5,5.23,5.92C80.75,136.25,78.98,138.68,75.54,138.68z M57.58,142.24c2.81,0,5.18-0.86,6.8-2.96l-1.72-1.8
		c-0.15-0.15-0.38-0.25-0.58-0.25c-0.13,0-0.25,0.03-0.38,0.08c-0.2,0.08-0.73,0.56-1.09,0.78c-0.86,0.56-1.85,0.61-2.76,0.61
		c-3.06,0-4.93-2.58-4.93-5.94c0-3.49,2.05-5.92,5.29-5.92c0.68,0,1.47,0.1,2.05,0.33c0.38,0.15,1.39,0.76,1.59,0.89
		c0.13,0.08,0.28,0.1,0.43,0.1c0.38,0,0.63-0.15,0.86-0.46l1.47-1.95c-1.59-1.67-4.12-2.48-6.37-2.48c-5.74,0-9.71,3.95-9.71,9.48
		C48.53,138.3,52.1,142.24,57.58,142.24z M40.94,142.04h4.32v-18.56h-4.32V142.04z M19.78,142.04h4.3v-9.69
		c0-0.33-0.05-1.52-0.08-1.82l8.24,10.8c0.43,0.56,0.91,0.71,1.49,0.71h2.76v-18.56h-4.3v9.56c0,0.35,0.05,1.57,0.1,2l-8.32-10.9
		c-0.18-0.23-0.43-0.46-0.61-0.53c-0.25-0.1-0.63-0.13-0.81-0.13h-2.78V142.04z M7.99,142.24c4.83,0,7.97-3.14,7.97-7.76v-11h-4.3
		v11c0,2.55-1.34,4.15-3.67,4.15c-2.4,0-3.69-1.72-3.69-4.17v-10.98H0v11C0,139.18,3.19,142.24,7.99,142.24z M75.54,142.24
		c5.69,0,9.64-4.05,9.64-9.48c0-5.54-4.07-9.48-9.64-9.48c-5.69,0-9.66,4.02-9.66,9.48C65.88,138.27,69.93,142.24,75.54,142.24z"/>
</g>
</svg>
