<svg xmlns="http://www.w3.org/2000/svg" x="0px" y="0px" viewBox="28.5 24.5 100 100">
<path fill="#FFFFFF" d="M74.1,69.6c0-12,1.2-22.8,1.2-22.8l-7.5-7c0,0,11.4-3.8,18.7-0.2c2.8,7.1,14.6,6.5,14.6,6.5  s8.7,4.6,11.9,13.5c-4.3-1.4-17.1-4.9-17.1-4.9S83.2,58.6,74.1,69.6z"/>
<ellipse fill="#FFFFFF" cx="98.8" cy="35.2" rx="10.6" ry="7.3"/>
<path fill="#FFFFFF" d="M76.3,77.3c8.5,6.8,13.3,12.2,18.7,19.2c0.2,3.9-0.8,8.6-2.2,13.7c9-2.8,15.1-10.1,15.1-10.1s-3-11.6,8-14.5  c2.5-6.7,1.2-16.4-0.4-19.7c-3.8,3.1-5.9,6.5-10.6,11.4C97,77.3,76.3,77.3,76.3,77.3z"/>
<circle fill="#FFFFFF" cx="119.3" cy="96.7" r="9"/>
<path fill="#FFFFFF" d="M69.1,78.2c-1.1,5.4-1.5,14.1,1.4,22.2c3.1,6.2,12.7,12,14.4,11.9c1.7-0.1-9.9,2.8-17.3-0.6  c-1.6-3.5-5.7-8.3-13.2-7c-4-3.4-8.1-8.2-10.1-14.8c3.7,1.2,6.7,3.2,12.3,3.5C61.5,88.9,69.1,78.2,69.1,78.2z"/>
<path fill="#FFFFFF" d="M57.2,107.8c4.5,0,8.2,3.9,8.2,8.8s-3.7,8.8-8.2,8.8s-8.2-3.9-8.2-8.8C49,111.8,52.6,107.8,57.2,107.8z"/>
<path fill="#FFFFFF" d="M67.8,71.6L57.1,55c0.8-7,6.4-14.2,6.4-14.2C52.8,44.6,48,53,48,53c0.8,8.8-6,10.7-6,10.7  c-2.7,8.7-0.6,17.6-0.6,17.6c3-7.8,6.3-10.2,6.3-10.2L67.8,71.6z"/>
<ellipse fill="#FFFFFF" cx="37.2" cy="54.3" rx="8.3" ry="7.6"/>
<path fill="#799D42" d="M73.9,67.3c0-12,1.2-22.8,1.2-22.8l-7.5-7c0,0,11.4-3.8,18.7-0.2c2.8,7.1,14.6,6.5,14.6,6.5  s8.7,4.6,11.9,13.5c-4.3-1.4-17.1-4.9-17.1-4.9S83,56.2,73.9,67.3z"/>
<ellipse fill="#799D42" cx="98.6" cy="32.9" rx="10.6" ry="7.3"/>
<path fill="#B33F1B" d="M76,75c8.5,6.8,13.4,12.2,18.7,19.2c0.2,3.9-0.8,8.6-2.2,13.7c9-2.8,15.1-10.1,15.1-10.1s-3-11.6,8-14.5  c2.5-6.7,1.2-16.4-0.4-19.7c-3.8,3.1-5.9,6.5-10.6,11.4C96.7,74.9,76,75,76,75z"/>
<circle fill="#B33F1B" cx="119.1" cy="94.4" r="9"/>
<path fill="#F16431" d="M68.8,75.9c-1.1,5.4-1.5,14.1,1.4,22.2c3.1,6.2,12.7,12,14.4,11.9s-9.9,2.8-17.3-0.6  c-1.6-3.5-5.7-8.3-13.2-7C50.1,99,46,94.2,44,87.6c3.7,1.2,6.7,3.2,12.3,3.5C61.3,86.6,68.8,75.9,68.8,75.9z"/>
<ellipse fill="#F16431" cx="56.9" cy="114.3" rx="8.2" ry="8.8"/>
<path fill="#008EC1" d="M67.6,69.3L56.9,52.6c0.8-7,6.4-14.2,6.4-14.2c-10.7,3.8-15.5,12.2-15.5,12.2c0.8,8.8-6,10.7-6,10.7  c-2.7,8.7-0.6,17.6-0.6,17.6c3-7.8,6.3-10.2,6.3-10.2L67.6,69.3z"/>
<ellipse fill="#008EC1" cx="37" cy="51.9" rx="8.3" ry="7.6"/>
</svg>
